<svg width="14" height="16" viewBox="0 0 14 16" fill="none" xmlns="http://www.w3.org/2000/svg">
<g id="account">
<path id="Vector" d="M9.8 9.5C8.90312 9.5 8.47187 10 7 10C5.52812 10 5.1 9.5 4.2 9.5C1.88125 9.5 0 11.3812 0 13.7V14.5C0 15.3281 0.671875 16 1.5 16H12.5C13.3281 16 14 15.3281 14 14.5V13.7C14 11.3812 12.1187 9.5 9.8 9.5ZM12.5 14.5H1.5V13.7C1.5 12.2125 2.7125 11 4.2 11C4.65625 11 5.39687 11.5 7 11.5C8.61562 11.5 9.34062 11 9.8 11C11.2875 11 12.5 12.2125 12.5 13.7V14.5Z" fill="#475C77"/>
<path id="Ellipse 1 (Stroke)" fill-rule="evenodd" clip-rule="evenodd" d="M7.07128 7.7142C8.79574 7.7142 10.1937 6.31625 10.1937 4.59178C10.1937 2.86732 8.79574 1.46937 7.07128 1.46937C5.34682 1.46937 3.94886 2.86732 3.94886 4.59178C3.94886 6.31625 5.34682 7.7142 7.07128 7.7142ZM7.07128 9.18357C9.60725 9.18357 11.6631 7.12776 11.6631 4.59178C11.6631 2.05581 9.60725 0 7.07128 0C4.5353 0 2.47949 2.05581 2.47949 4.59178C2.47949 7.12776 4.5353 9.18357 7.07128 9.18357Z" fill="#475C77"/>
</g>
</svg>
