<svg width="18" height="18" viewBox="0 0 18 18" fill="none" xmlns="http://www.w3.org/2000/svg">
<g id="download">
<g id="download_2">
<path d="M7.57241 10.0106V1.12378C7.56729 0.976959 7.58247 0.830131 7.61755 0.687465C7.67708 0.472565 7.81123 0.28591 7.99595 0.160985C8.18067 0.0360605 8.40385 -0.018958 8.62546 0.00580001C8.84708 0.030558 9.05262 0.133472 9.20521 0.29608C9.35781 0.458687 9.44746 0.670347 9.45811 0.893086C9.45811 1.00843 9.45811 1.12378 9.45811 1.23913V10.0457L9.67376 9.84011L12.5374 6.97646C12.6485 6.84676 12.7919 6.74875 12.9531 6.69238C13.1143 6.63601 13.2875 6.62328 13.4552 6.65549C13.6238 6.68869 13.7802 6.76735 13.9073 6.88296C14.0345 6.99858 14.1276 7.14676 14.1767 7.31148C14.2257 7.4762 14.2288 7.65119 14.1856 7.81754C14.1425 7.9839 14.0546 8.13528 13.9316 8.25532C13.2997 8.89726 12.6628 9.52917 12.0259 10.1711C11.093 11.0989 10.1652 12.0367 9.23744 12.9645C9.14822 13.061 9.04002 13.138 8.91962 13.1907C8.79922 13.2433 8.66923 13.2705 8.53783 13.2705C8.40642 13.2705 8.27643 13.2433 8.15603 13.1907C8.03563 13.138 7.92743 13.061 7.83821 12.9645C6.2902 11.4199 4.74387 9.87689 3.1992 8.33556C3.06388 8.22067 2.96148 8.07193 2.90245 7.90453C2.84342 7.73712 2.82987 7.55704 2.86319 7.38269C2.89519 7.21599 2.97161 7.06103 3.08437 6.93415C3.19713 6.80727 3.34205 6.71319 3.50383 6.66183C3.66562 6.61047 3.83827 6.60373 4.00356 6.64234C4.16886 6.68095 4.32066 6.76346 4.44296 6.88117C4.79402 7.21719 5.13003 7.56825 5.47608 7.8842C6.10799 8.51611 6.73488 9.14802 7.3718 9.77993L7.57241 10.0106Z" fill="#1174F0"/>
<path d="M2.8682 17.9998C2.19474 18.0087 1.54043 17.7757 1.02416 17.3432C0.507881 16.9106 0.163896 16.3072 0.0547034 15.6426C0.00775468 15.26 -0.00901424 14.8744 0.00455194 14.4892C0.00455194 14.0428 0.00455194 13.5965 0.00455194 13.1501C0.0236737 12.9371 0.116998 12.7375 0.268237 12.5863C0.419476 12.4351 0.619024 12.3417 0.832051 12.3226C1.04864 12.2952 1.26795 12.3451 1.45141 12.4634C1.63487 12.5817 1.77072 12.761 1.83508 12.9696C1.87013 13.1037 1.88534 13.2423 1.88022 13.3808C1.88022 13.9375 1.88022 14.4892 1.88022 15.0458C1.86468 15.1903 1.88207 15.3365 1.93107 15.4734C1.98007 15.6102 2.05942 15.7342 2.16316 15.836C2.26689 15.9378 2.39234 16.0148 2.53007 16.0612C2.66781 16.1076 2.81427 16.1223 2.95847 16.104H14.0921C14.233 16.1189 14.3754 16.1022 14.509 16.0551C14.6425 16.008 14.764 15.9317 14.8644 15.8318C14.9648 15.7319 15.0416 15.6109 15.0893 15.4775C15.1371 15.3441 15.1545 15.2018 15.1403 15.0609C15.1403 14.4591 15.1403 13.8572 15.1403 13.2554C15.1427 13.0231 15.2303 12.7997 15.3865 12.6277C15.5428 12.4558 15.7568 12.3472 15.9878 12.3226C16.1012 12.3033 16.2173 12.3067 16.3293 12.3327C16.4414 12.3586 16.5471 12.4066 16.6405 12.4738C16.7338 12.541 16.8128 12.6261 16.873 12.7241C16.9331 12.8221 16.9732 12.9311 16.9909 13.0448C17.1265 14.0382 17.0909 15.0475 16.8855 16.0288C16.7076 16.6083 16.3454 17.114 15.8539 17.4688C15.3623 17.8237 14.7684 18.0083 14.1623 17.9947L2.8682 17.9998Z" fill="#1174F0"/>
</g>
</g>
</svg>
