<svg width="19" height="19" viewBox="0 0 19 19" fill="none" xmlns="http://www.w3.org/2000/svg">
<g id="share">
<g id="share_2">
<path d="M9.07293 18.0034C7.28673 18.0034 5.50054 18.0085 3.71434 18.0009C1.94591 17.9933 0.519993 16.8515 0.152098 15.144C0.0937417 14.8776 0.0785187 14.601 0.0759815 14.327C0.0709071 10.7749 0.0709065 7.2228 0.0734437 3.67071C0.0759809 1.78556 1.31414 0.334279 3.16884 0.0348879C3.32868 0.00951577 3.49107 0.00190291 3.65091 0.00190291C5.14279 -0.000634302 6.63213 -0.000634302 8.12401 0.00190291C8.65429 0.00190291 9.04502 0.362188 9.06785 0.85187C9.09323 1.37961 8.68981 1.79064 8.12908 1.79317C6.92645 1.79825 5.72381 1.79571 4.52117 1.79571C4.24715 1.79571 3.97314 1.79064 3.69912 1.79571C2.64364 1.81855 1.88501 2.5721 1.86471 3.62758C1.85457 4.1198 1.86218 4.61201 1.86218 5.10423C1.86218 8.16411 1.86218 11.224 1.86218 14.2813C1.86218 15.2302 2.39245 15.9457 3.25257 16.1487C3.42764 16.1893 3.61539 16.202 3.79553 16.202C7.3121 16.2045 10.8261 16.2045 14.3427 16.2045C15.5073 16.2045 16.2685 15.4408 16.271 14.2737C16.2735 12.8326 16.271 11.3889 16.2735 9.94776C16.2735 9.45301 16.5653 9.09526 17.0144 9.01154C17.5523 8.91005 18.0546 9.32361 18.0623 9.89448C18.0724 10.7242 18.0648 11.5538 18.0648 12.3835C18.0648 13.0381 18.0673 13.6927 18.0648 14.3447C18.0546 16.2172 16.819 17.6634 14.9719 17.9628C14.7664 17.9958 14.5508 17.9983 14.3402 17.9983C12.5895 18.0059 10.8312 18.0034 9.07293 18.0034Z" fill="#1174F0"/>
<path d="M14.9339 1.79825C14.8578 1.79825 14.7816 1.79825 14.7055 1.79825C13.7135 1.79825 12.724 1.80332 11.7319 1.79317C11.2422 1.7881 10.8794 1.38722 10.8794 0.90008C10.8794 0.412936 11.2448 0.029816 11.7345 0.00698108C11.9248 -0.000630553 12.115 0.00444526 12.3028 0.00444526C13.8987 0.00444526 15.4946 0.00444526 17.0905 0.00444526C17.7147 0.00444526 18.0699 0.359653 18.0699 0.986344C18.0724 2.75224 18.0724 4.5156 18.0699 6.2815C18.0699 6.72551 17.806 7.0655 17.4051 7.1746C17.022 7.27862 16.5958 7.11878 16.4105 6.76103C16.3268 6.60119 16.2862 6.40075 16.2837 6.21807C16.271 5.26915 16.2786 4.32024 16.2786 3.37132C16.2786 3.2952 16.2786 3.21909 16.2786 3.08715C16.1873 3.17342 16.1264 3.22416 16.0706 3.27998C13.9774 5.37318 11.8816 7.46384 9.7935 9.56211C9.52455 9.8336 9.21755 9.96807 8.84204 9.87165C8.22043 9.71181 7.96924 8.96333 8.36251 8.45589C8.4234 8.37977 8.49444 8.31127 8.56295 8.24023C10.6358 6.16733 12.7087 4.09189 14.7842 2.02153C14.8425 1.96317 14.9237 1.92765 14.9948 1.88198C14.977 1.85407 14.9542 1.82616 14.9339 1.79825Z" fill="#1174F0"/>
</g>
</g>
</svg>
